<svg xmlns="http://www.w3.org/2000/svg" width="50" height="40" viewBox="0 0 50 40">
  <g id="Grupo_7" data-name="Grupo 7" transform="translate(-249 -7960)">
    <path id="Caminho_14" data-name="Caminho 14" d="M0,0H36.111L50,40H0Z" transform="translate(249 7960)" fill="#96324d"/>
    <g id="icons8_right_filled_1" transform="translate(252.096 7961.916)">
      <path id="Caminho_16" data-name="Caminho 16" d="M16.711,13.088a.8.8,0,0,0-.477,1.38l2.6,2.6H8.745a.6.6,0,0,0-.075,0,.8.8,0,1,0,.075,1.606H18.831l-2.609,2.6a.807.807,0,0,0,1.142,1.141l3.964-3.976.577-.565-.577-.564-3.964-3.976A.8.8,0,0,0,16.711,13.088Z" fill="#f8f8f8"/>
    </g>
  </g>
</svg>
