<svg xmlns="http://www.w3.org/2000/svg" width="14" height="15.333" viewBox="0 0 14 15.333">
  <g id="icons8_time" transform="translate(-4 -2)">
    <path id="Caminho_13" data-name="Caminho 13" d="M9.667,2V3h.667v.366a7,7,0,1,0,1.333,0V3h.667V2Zm6.411,1.049-.668.668,1.538,1.538.669-.668ZM11,4a6.333,6.333,0,1,1-6.333,6.333A6.329,6.329,0,0,1,11,4ZM7.663,6.663a.338.338,0,0,0-.309.208.333.333,0,0,0,.077.365l2.926,2.926a.636.636,0,0,0-.023.172A.666.666,0,0,0,11,11a.691.691,0,0,0,.172-.022l.592.591a.333.333,0,1,0,.471-.471l-.592-.592a.636.636,0,0,0,.023-.172A.666.666,0,0,0,11,9.667a.691.691,0,0,0-.172.022L7.9,6.764A.336.336,0,0,0,7.663,6.663Z" fill="rgba(28,28,28,0.6)"/>
  </g>
</svg>
