<?xml version="1.0" encoding="UTF-8"?>
<svg xmlns="http://www.w3.org/2000/svg" xmlns:xlink="http://www.w3.org/1999/xlink" width="25pt" height="25pt" viewBox="0 0 25 25" version="1.1">
<g id="surface1">
<path style=" stroke:none;fill-rule:nonzero;fill:#E68368;fill-opacity:1;" d="M 2.976563 0.992188 L 2.976563 23.808594 L 16.160156 23.808594 C 15.757813 23.515625 15.347656 23.1875 14.953125 22.816406 L 3.96875 22.816406 L 3.96875 1.984375 L 20.832031 1.984375 L 20.832031 14.460938 C 21.078125 14.414063 21.324219 14.386719 21.578125 14.386719 C 21.660156 14.386719 21.742188 14.394531 21.824219 14.398438 L 21.824219 0.992188 Z M 6.449219 6.945313 L 6.449219 7.9375 L 8.433594 7.9375 L 8.433594 6.945313 Z M 9.921875 6.945313 L 9.921875 7.9375 L 18.351563 7.9375 L 18.351563 6.945313 Z M 6.449219 9.921875 L 6.449219 10.914063 L 8.433594 10.914063 L 8.433594 9.921875 Z M 9.921875 9.921875 L 9.921875 10.914063 L 18.351563 10.914063 L 18.351563 9.921875 Z M 6.449219 12.898438 L 6.449219 13.890625 L 8.433594 13.890625 L 8.433594 12.898438 Z M 9.921875 12.898438 L 9.921875 13.890625 L 18.351563 13.890625 L 18.351563 12.898438 Z M 17.113281 15.378906 C 15.328125 15.378906 13.890625 16.792969 13.890625 18.503906 C 13.890625 21.1875 16.367188 22.800781 17.957031 23.824219 C 18.402344 24.117188 18.75 24.3125 19 24.558594 L 19.296875 24.800781 L 19.59375 24.558594 C 19.839844 24.363281 20.238281 24.117188 20.632813 23.824219 C 22.320313 22.75 24.800781 21.1875 24.800781 18.503906 C 24.800781 16.792969 23.363281 15.378906 21.578125 15.378906 C 20.734375 15.378906 19.941406 15.71875 19.34375 16.253906 C 18.75 15.71875 17.957031 15.378906 17.113281 15.378906 Z M 6.449219 15.871094 L 6.449219 16.863281 L 8.433594 16.863281 L 8.433594 15.871094 Z M 9.921875 15.871094 L 9.921875 16.863281 L 13.246094 16.863281 C 13.40625 16.503906 13.617188 16.171875 13.871094 15.871094 Z M 17.113281 16.355469 C 17.855469 16.355469 18.503906 16.710938 18.949219 17.34375 L 19.34375 17.855469 L 19.742188 17.34375 C 20.140625 16.761719 20.832031 16.355469 21.578125 16.355469 C 22.816406 16.355469 23.808594 17.332031 23.808594 18.503906 C 23.808594 20.652344 21.726563 22.015625 20.1875 22.996094 C 19.839844 23.191406 19.59375 23.386719 19.34375 23.53125 C 19.097656 23.335938 18.847656 23.191406 18.503906 22.996094 C 16.964844 22.015625 14.882813 20.652344 14.882813 18.503906 C 14.882813 17.332031 15.871094 16.355469 17.113281 16.355469 Z "/>
</g>
</svg>
