<?xml version="1.0" encoding="UTF-8"?>
<svg xmlns="http://www.w3.org/2000/svg" xmlns:xlink="http://www.w3.org/1999/xlink" width="25pt" height="25pt" viewBox="0 0 25 25" version="1.1">
<g id="surface1">
<path style=" stroke:none;fill-rule:nonzero;fill:#000000;fill-opacity:1;" d="M 3 1 L 3 24 L 16.289063 24 C 15.882813 23.703125 15.46875 23.375 15.074219 23 L 4 23 L 4 2 L 21 2 L 21 14.578125 C 21.246094 14.53125 21.496094 14.5 21.75 14.5 C 21.835938 14.5 21.917969 14.507813 22 14.515625 L 22 1 Z M 6.5 7 L 6.5 8 L 8.5 8 L 8.5 7 Z M 10 7 L 10 8 L 18.5 8 L 18.5 7 Z M 6.5 10 L 6.5 11 L 8.5 11 L 8.5 10 Z M 10 10 L 10 11 L 18.5 11 L 18.5 10 Z M 6.5 13 L 6.5 14 L 8.5 14 L 8.5 13 Z M 10 13 L 10 14 L 18.5 14 L 18.5 13 Z M 17.25 15.5 C 15.449219 15.5 14 16.929688 14 18.648438 C 14 21.359375 16.5 22.984375 18.101563 24.015625 C 18.546875 24.3125 18.898438 24.507813 19.148438 24.757813 L 19.453125 25 L 19.75 24.753906 C 20 24.554688 20.398438 24.3125 20.796875 24.015625 C 22.5 22.933594 25 21.359375 25 18.648438 C 25 16.929688 23.550781 15.5 21.75 15.5 C 20.898438 15.5 20.101563 15.84375 19.5 16.382813 C 18.898438 15.84375 18.101563 15.5 17.25 15.5 Z M 6.5 16 L 6.5 17 L 8.5 17 L 8.5 16 Z M 10 16 L 10 17 L 13.351563 17 C 13.515625 16.636719 13.726563 16.300781 13.984375 16 Z M 17.25 16.484375 C 18 16.484375 18.648438 16.84375 19.101563 17.484375 L 19.5 18 L 19.898438 17.484375 C 20.300781 16.894531 21 16.484375 21.75 16.484375 C 23 16.484375 24 17.46875 24 18.648438 C 24 20.816406 21.898438 22.195313 20.351563 23.179688 C 20 23.375 19.75 23.570313 19.5 23.71875 C 19.25 23.523438 19 23.375 18.648438 23.179688 C 17.101563 22.195313 15 20.816406 15 18.648438 C 15 17.46875 16 16.484375 17.25 16.484375 Z "/>
</g>
</svg>
